# xmcd
# 
# Track frame offsets:
#     150
#     15912
#     32660
#     50262
#     65472
#     82015
#     94160
#     109040
#     126017
#     139957
# 
# Disc length: 2126
# 
# Revision: 1
# Processed by: cddbd v1.5.2PL0 Copyright (c) Steve Scherf et al.
# Submitted via: BonkEnc v1.0.5
# 
DISCID=7c084c0a
DTITLE=Kenny Rogers and Dolly Parton - Once Upon A Christmas
DYEAR=1984
DGENRE=Christmas
TTITLE0=I Believe In Santa Claus
TTITLE1=Medley: Winter Wonderland/Sleigh Ride
TTITLE2=Christmas Without You
TTITLE3=The Christmas Song
TTITLE4=A Christmas To Remember
TTITLE5=With Bells On
TTITLE6=Silent Night
TTITLE7=The Greatest Gift Of All
TTITLE8=White Christmas
TTITLE9=Once Upon A Christmas
EXTD=
EXTT0=
EXTT1=
EXTT2=
EXTT3=
EXTT4=
EXTT5=
EXTT6=
EXTT7=
EXTT8=
EXTT9=
PLAYORDER=
